<svg width="130" height="130" viewBox="0 0 130 130" fill="none" xmlns="http://www.w3.org/2000/svg">
<path fill-rule="evenodd" clip-rule="evenodd" d="M83.0687 73.1932C86.1984 74.9003 89.8162 75.4136 93.8775 74.2253C106.441 70.5489 111.523 60.7108 112.209 49.0484C113.211 32.0192 104.698 11.0626 97.0882 0.647079C96.7284 0.153366 96.0365 0.0473328 95.5456 0.407166C95.0519 0.766998 94.9432 1.45877 95.303 1.95248C102.689 12.0612 110.974 32.393 110.003 48.92C109.373 59.6285 104.795 68.7274 93.2555 72.1026C89.8218 73.1096 86.7702 72.6661 84.1203 71.2296C85.0324 69.4834 85.8832 67.7344 86.6698 65.9855C88.84 61.1571 92.084 47.7513 90.8734 37.8937C90.0031 30.8226 86.8483 25.5813 79.953 25.7654C76.1204 25.8686 73.3478 28.2563 71.6519 32.0555C69.3171 37.2772 69.055 45.2772 70.6979 52.9424C72.0647 59.3245 74.7424 65.4639 78.5415 69.5838C79.3784 70.4875 80.2655 71.2993 81.2055 71.9966C68.0954 95.9741 43.7413 118.395 18.7317 127.851C18.1627 128.069 17.8726 128.705 18.0902 129.277C18.305 129.848 18.9438 130.136 19.5128 129.921C44.9296 120.309 69.688 97.5612 83.0687 73.1932ZM82.2627 70.0134C83.1162 68.3704 83.9139 66.7247 84.6531 65.079C86.7312 60.4514 89.8386 47.6091 88.6782 38.1642C87.9669 32.3679 85.6628 27.824 80.0115 27.9746C77.0436 28.0555 74.9852 30.0164 73.6686 32.9564C72.2237 36.1921 71.6713 40.5742 71.9029 45.2464C72.2543 52.3398 74.4216 60.0999 78.1929 65.5922C79.3867 67.3327 80.7452 68.8418 82.2627 70.0134Z" fill="#D80000"/>
<path fill-rule="evenodd" clip-rule="evenodd" d="M38.4939 91.6678C36.268 104.666 27.7715 118.507 18.614 128.092C18.1928 128.532 18.2095 129.232 18.6502 129.654C19.0909 130.075 19.7911 130.061 20.2123 129.62C29.6571 119.737 38.3767 105.442 40.6724 92.0416C40.7756 91.4419 40.3711 90.87 39.7686 90.7668C39.1689 90.6636 38.5971 91.0681 38.4939 91.6678Z" fill="#D80000"/>
<path fill-rule="evenodd" clip-rule="evenodd" d="M20.3547 129.853C29.8888 124.408 44.5135 123.655 55.1746 126.414C55.7659 126.567 56.3712 126.213 56.5218 125.622C56.6753 125.03 56.3211 124.428 55.7297 124.275C44.561 121.385 29.2473 122.23 19.2586 127.934C18.7286 128.235 18.5443 128.913 18.8456 129.443C19.1496 129.973 19.8247 130.157 20.3547 129.853Z" fill="#D80000"/>
</svg>
