<svg width="57" height="62" viewBox="0 0 57 62" fill="none" xmlns="http://www.w3.org/2000/svg">
<path fill-rule="evenodd" clip-rule="evenodd" d="M37.9286 57.8585C43.3713 56.3421 49.0696 55.5772 54.5973 54.8764C55.7879 54.7295 56.8932 55.5493 56.9783 56.7043C57.1484 57.8602 56.2975 58.9172 55.1919 59.0641C49.8343 59.7387 44.3071 60.4606 39.1195 61.9204C38.014 62.237 36.8229 61.5852 36.4827 60.464C36.1425 59.3436 36.823 58.1759 37.9286 57.8585Z" fill="#F20000"/>
<path fill-rule="evenodd" clip-rule="evenodd" d="M21.4311 36.3592C30.1905 27.4848 40.0553 19.7527 48.6445 10.6401C49.4099 9.78905 50.7706 9.74346 51.621 10.5379C52.4714 11.3333 52.5561 12.6706 51.7057 13.5217C43.1165 22.6604 33.2516 30.4179 24.4923 39.3185C23.6419 40.1493 22.2816 40.1611 21.4311 39.3438C20.6658 38.5274 20.5807 37.19 21.4311 36.3592Z" fill="#F20000"/>
<path fill-rule="evenodd" clip-rule="evenodd" d="M5.01708 2.22538C4.76196 7.3047 4.50733 12.384 4.2522 17.4642C4.2522 18.6276 3.2312 19.526 2.04062 19.4694C0.850034 19.412 0.000114441 18.4216 0.000114441 17.2573C0.25524 12.1696 0.509867 7.08264 0.764992 1.99572C0.850034 0.832277 1.8707 -0.0601507 3.06129 0.0031719C4.16683 0.0664945 5.10212 1.06277 5.01708 2.22538Z" fill="#F20000"/>
</svg>
